<svg xmlns="http://www.w3.org/2000/svg" viewBox="0 0 400 240" fill="none" width="100%" height="100%">
  <!-- Wireframe layout window -->
  <rect x="55" y="40" width="290" height="160" rx="12" fill="#ffffff" stroke="#0079ff" stroke-width="1.5" stroke-opacity="0.5"/>
  <!-- Top bar -->
  <rect x="55" y="40" width="290" height="28" rx="12" fill="#0079ff" fill-opacity="0.08"/>
  <circle cx="75" cy="54" r="4" fill="#ef8354"/>
  <circle cx="89" cy="54" r="4" fill="#f9c74f"/>
  <circle cx="103" cy="54" r="4" fill="#8bc34a"/>
  
  <!-- Sidebar -->
  <rect x="70" y="80" width="60" height="105" rx="8" fill="#0079ff" fill-opacity="0.06" stroke="#0079ff" stroke-opacity="0.2"/>
  <rect x="80" y="94" width="40" height="7" rx="3.5" fill="#0079ff"/>
  <rect x="80" y="109" width="30" height="5" rx="2.5" fill="#0079ff" fill-opacity="0.2"/>
  <rect x="80" y="120" width="35" height="5" rx="2.5" fill="#0079ff" fill-opacity="0.2"/>
  
  <!-- Main layout blocks -->
  <rect x="142" y="80" width="188" height="42" rx="8" fill="#0079ff" fill-opacity="0.12" stroke="#0079ff" stroke-width="1" stroke-opacity="0.3"/>
  <rect x="156" y="97" width="70" height="8" rx="4" fill="#0079ff"/>
  
  <rect x="142" y="132" width="90" height="53" rx="8" fill="#0079ff" fill-opacity="0.06" stroke="#0079ff" stroke-opacity="0.2"/>
  <rect x="240" y="132" width="90" height="53" rx="8" fill="#0079ff" fill-opacity="0.06" stroke="#0079ff" stroke-opacity="0.2"/>
  <circle cx="187" cy="158" r="11" fill="#0079ff" fill-opacity="0.2"/>
  <circle cx="285" cy="158" r="11" fill="#0079ff" fill-opacity="0.2"/>
</svg>
