<svg xmlns="http://www.w3.org/2000/svg" xmlns:xlink="http://www.w3.org/1999/xlink" width="48" zoomAndPan="magnify" viewBox="0 0 36 36.000001" height="48" preserveAspectRatio="xMidYMid meet" version="1.0"><defs><clipPath id="872fed177a"><path d="M 0.488281 0 L 35.511719 0 L 35.511719 35.027344 L 0.488281 35.027344 Z M 0.488281 0 " clip-rule="nonzero"></path></clipPath><clipPath id="a3155945ea"><path d="M 0.9375 17 L 3 17 L 3 19 L 0.9375 19 Z M 0.9375 17 " clip-rule="nonzero"></path></clipPath><clipPath id="39b506427b"><path d="M 8.4375 8.960938 L 35.03125 8.960938 L 35.03125 25.746094 L 8.4375 25.746094 Z M 8.4375 8.960938 " clip-rule="nonzero"></path></clipPath></defs><g clip-path="url(#872fed177a)"><path fill="transparent" d="M 0.488281 0 L 35.511719 0 L 35.511719 35.027344 L 0.488281 35.027344 Z M 0.488281 0 " fill-opacity="1" fill-rule="nonzero"></path><path fill="transparent" d="M 0.488281 0 L 35.511719 0 L 35.511719 35.027344 L 0.488281 35.027344 Z M 0.488281 0 " fill-opacity="1" fill-rule="nonzero"></path></g><path fill="#ffd333" d="M 11.039062 21.128906 C 11.039062 20.84375 10.820312 20.613281 10.546875 20.613281 L 5.832031 20.613281 C 5.5625 20.613281 5.339844 20.84375 5.339844 21.128906 C 5.339844 21.414062 5.5625 21.640625 5.832031 21.640625 L 10.546875 21.640625 C 10.820312 21.640625 11.039062 21.414062 11.039062 21.128906 " fill-opacity="1" fill-rule="nonzero"></path><path fill="#ffd333" d="M 5.929688 14.820312 C 5.65625 14.820312 5.4375 15.050781 5.4375 15.332031 C 5.4375 15.617188 5.65625 15.847656 5.929688 15.847656 L 10.410156 15.847656 C 10.679688 15.847656 10.902344 15.617188 10.902344 15.332031 C 10.902344 15.050781 10.679688 14.820312 10.410156 14.820312 L 5.929688 14.820312 " fill-opacity="1" fill-rule="nonzero"></path><path fill="#ffd333" d="M 4.753906 12.949219 L 6.132812 12.949219 C 6.402344 12.949219 6.625 12.722656 6.625 12.4375 C 6.625 12.152344 6.402344 11.921875 6.132812 11.921875 L 4.753906 11.921875 C 4.480469 11.921875 4.261719 12.152344 4.261719 12.4375 C 4.261719 12.722656 4.480469 12.949219 4.753906 12.949219 " fill-opacity="1" fill-rule="nonzero"></path><path fill="#ffd333" d="M 12.980469 18.230469 C 12.980469 17.945312 12.761719 17.714844 12.488281 17.714844 L 4.851562 17.714844 C 4.578125 17.714844 4.359375 17.945312 4.359375 18.230469 C 4.359375 18.515625 4.578125 18.746094 4.851562 18.746094 L 12.488281 18.746094 C 12.761719 18.746094 12.980469 18.515625 12.980469 18.230469 " fill-opacity="1" fill-rule="nonzero"></path><g clip-path="url(#a3155945ea)"><path fill="#ffd333" d="M 2.289062 17.714844 L 1.453125 17.714844 C 1.179688 17.714844 0.960938 17.945312 0.960938 18.230469 C 0.960938 18.515625 1.179688 18.746094 1.453125 18.746094 L 2.289062 18.746094 C 2.5625 18.746094 2.78125 18.515625 2.78125 18.230469 C 2.78125 17.945312 2.5625 17.714844 2.289062 17.714844 " fill-opacity="1" fill-rule="nonzero"></path></g><path fill="#ffd333" d="M 8.03125 12.949219 L 12.734375 12.949219 C 12.929688 12.949219 13.097656 12.835938 13.175781 12.664062 C 13.210938 12.597656 13.226562 12.519531 13.226562 12.4375 C 13.226562 12.355469 13.210938 12.277344 13.175781 12.207031 C 13.097656 12.039062 12.929688 11.921875 12.734375 11.921875 L 8.03125 11.921875 C 7.839844 11.921875 7.671875 12.039062 7.59375 12.207031 C 7.558594 12.277344 7.539062 12.355469 7.539062 12.4375 C 7.539062 12.519531 7.558594 12.597656 7.59375 12.664062 C 7.671875 12.835938 7.839844 12.949219 8.03125 12.949219 " fill-opacity="1" fill-rule="nonzero"></path><g clip-path="url(#39b506427b)"><path fill="#ffd333" d="M 34.046875 22.347656 C 34.046875 22.839844 33.667969 23.238281 33.195312 23.238281 L 32.816406 23.238281 C 32.816406 23.21875 32.816406 23.203125 32.816406 23.183594 C 32.816406 21.597656 31.578125 20.304688 30.058594 20.304688 C 28.539062 20.304688 27.300781 21.597656 27.300781 23.183594 C 27.300781 23.203125 27.304688 23.21875 27.304688 23.238281 L 25.480469 23.238281 L 25.480469 12.589844 L 30.523438 12.589844 C 30.878906 12.589844 31.207031 12.78125 31.398438 13.097656 L 33.832031 17.148438 C 33.964844 17.371094 34.039062 17.625 34.046875 17.886719 L 29.519531 17.886719 L 29.519531 14.351562 C 29.519531 14.070312 29.308594 13.832031 29.039062 13.824219 C 28.761719 13.816406 28.53125 14.050781 28.53125 14.339844 L 28.53125 18.402344 C 28.53125 18.6875 28.753906 18.917969 29.023438 18.917969 L 34.046875 18.917969 Z M 31.832031 23.273438 C 31.789062 24.222656 31.050781 24.992188 30.140625 25.035156 C 29.101562 25.085938 28.242188 24.1875 28.289062 23.097656 C 28.332031 22.148438 29.066406 21.378906 29.976562 21.335938 C 31.019531 21.285156 31.878906 22.183594 31.832031 23.273438 Z M 16.761719 23.273438 C 16.722656 24.222656 15.984375 24.992188 15.074219 25.035156 C 14.03125 25.085938 13.171875 24.1875 13.222656 23.097656 C 13.261719 22.148438 14 21.378906 14.910156 21.335938 C 15.953125 21.285156 16.8125 22.183594 16.761719 23.273438 Z M 34.667969 16.601562 L 32.230469 12.550781 C 31.859375 11.929688 31.21875 11.5625 30.523438 11.5625 L 25.480469 11.5625 C 25.472656 11.144531 25.378906 10.753906 25.210938 10.402344 C 24.78125 9.511719 23.894531 8.960938 22.941406 8.960938 L 10.308594 8.960938 C 9.585938 9.058594 8.960938 9.476562 8.558594 10.070312 C 8.3125 10.4375 8.449219 10.8125 8.871094 10.886719 C 9.058594 10.921875 9.25 10.835938 9.355469 10.671875 C 9.636719 10.246094 10.105469 9.96875 10.640625 9.96875 L 22.9375 9.96875 C 23.796875 9.96875 24.496094 10.695312 24.496094 11.59375 L 24.496094 23.238281 L 17.746094 23.238281 C 17.75 23.21875 17.75 23.203125 17.75 23.183594 C 17.75 21.597656 16.511719 20.304688 14.992188 20.304688 C 13.472656 20.304688 12.234375 21.597656 12.234375 23.183594 C 12.234375 23.203125 12.234375 23.21875 12.234375 23.238281 L 10.640625 23.238281 C 10.234375 23.238281 9.867188 23.074219 9.589844 22.8125 C 9.496094 22.722656 9.378906 22.671875 9.253906 22.671875 C 8.804688 22.671875 8.589844 23.246094 8.917969 23.5625 C 9.371094 24 9.976562 24.265625 10.640625 24.265625 L 12.4375 24.265625 C 12.847656 25.320312 13.835938 26.066406 14.992188 26.066406 C 16.148438 26.066406 17.136719 25.320312 17.546875 24.265625 L 27.503906 24.265625 C 27.914062 25.320312 28.90625 26.066406 30.058594 26.066406 C 31.214844 26.066406 32.203125 25.320312 32.613281 24.265625 L 33.195312 24.265625 C 34.210938 24.265625 35.03125 23.40625 35.03125 22.347656 L 35.03125 17.929688 C 35.03125 17.460938 34.90625 17 34.667969 16.601562 " fill-opacity="1" fill-rule="nonzero"></path></g></svg>