<?xml version="1.0" encoding="UTF-8" standalone="no"?><!DOCTYPE svg PUBLIC "-//W3C//DTD SVG 1.1//EN" "http://www.w3.org/Graphics/SVG/1.1/DTD/svg11.dtd"><svg width="100%" height="100%" viewBox="0 0 800 800" version="1.1" xmlns="http://www.w3.org/2000/svg" xmlns:xlink="http://www.w3.org/1999/xlink" xml:space="preserve" xmlns:serif="http://www.serif.com/" style="fill-rule:evenodd;clip-rule:evenodd;stroke-linejoin:round;stroke-miterlimit:2;"><g id="Layer_2"><g id="invisible_box"><rect x="0" y="0" width="800" height="800" style="fill:none;"/></g><g id="icons_Q2"><path d="M696.667,133.333l-335,0c-14.987,-39.502 -52.756,-66.006 -95,-66.666c-41.932,0.398 -79.358,27.13 -93.334,66.666l-70,0c-0.567,-0.027 -1.136,-0.041 -1.704,-0.041c-18.588,-0 -34.099,14.807 -34.962,33.375c0.863,18.567 16.374,33.375 34.962,33.375c0.568,-0 1.137,-0.014 1.704,-0.042l70,0c13.976,39.536 51.402,66.269 93.334,66.667c42.244,-0.66 80.013,-27.165 95,-66.667l335,-0c0.567,0.028 1.136,0.042 1.704,0.042c18.588,-0 34.099,-14.808 34.962,-33.375c-0.863,-18.568 -16.374,-33.375 -34.962,-33.375c-0.568,-0 -1.137,0.014 -1.704,0.041Zm-430,66.667c-18.286,-0 -33.334,-15.047 -33.334,-33.333c0,-18.286 15.048,-33.334 33.334,-33.334c18.286,0 33.333,15.048 33.333,33.334c0,18.286 -15.047,33.333 -33.333,33.333Z" style="fill-rule:nonzero;"/><path d="M696.667,366.667l-68.334,-0c-14.986,-39.502 -52.755,-66.007 -95,-66.667c-41.931,0.398 -79.357,27.131 -93.333,66.667l-336.667,-0c-18.286,-0 -33.333,15.047 -33.333,33.333c-0,18.286 15.047,33.333 33.333,33.333l336.667,0c13.976,39.536 51.402,66.269 93.333,66.667c42.245,-0.66 80.014,-27.165 95,-66.667l68.334,0c18.286,0 33.333,-15.047 33.333,-33.333c0,-18.286 -15.047,-33.333 -33.333,-33.333Zm-163.334,66.666c-18.286,0 -33.333,-15.047 -33.333,-33.333c-0,-18.286 15.047,-33.333 33.333,-33.333c18.286,-0 33.334,15.047 33.334,33.333c-0,18.286 -15.048,33.333 -33.334,33.333Z" style="fill-rule:nonzero;"/><path d="M696.667,600l-285,0c-14.987,-39.502 -52.756,-66.007 -95,-66.667c-41.932,0.398 -79.358,27.131 -93.334,66.667l-120,0c-18.286,0 -33.333,15.047 -33.333,33.333c-0,18.286 15.047,33.334 33.333,33.334l120,-0c13.976,39.536 51.402,66.268 93.334,66.666c42.244,-0.66 80.013,-27.164 95,-66.666l285,-0c18.286,-0 33.333,-15.048 33.333,-33.334c0,-18.286 -15.047,-33.333 -33.333,-33.333Zm-380,66.667c-18.286,-0 -33.334,-15.048 -33.334,-33.334c0,-18.286 15.048,-33.333 33.334,-33.333c18.286,0 33.333,15.047 33.333,33.333c0,18.286 -15.047,33.334 -33.333,33.334Z" style="fill-rule:nonzero;"/></g></g></svg>