<svg xmlns="http://www.w3.org/2000/svg" xmlns:xlink="http://www.w3.org/1999/xlink" width="48" zoomAndPan="magnify" viewBox="0 0 36 36.000001" height="48" preserveAspectRatio="xMidYMid meet" version="1.0"><defs><clipPath id="d2c498c124"><path d="M 0.488281 0 L 35.511719 0 L 35.511719 35.027344 L 0.488281 35.027344 Z M 0.488281 0 " clip-rule="nonzero"></path></clipPath><clipPath id="fe283b152f"><path d="M 10 6 L 31.59375 6 L 31.59375 30 L 10 30 Z M 10 6 " clip-rule="nonzero"></path></clipPath><clipPath id="52b6e0301b"><path d="M 7 11 L 29 11 L 29 34.761719 L 7 34.761719 Z M 7 11 " clip-rule="nonzero"></path></clipPath><clipPath id="9b78bf31e9"><path d="M 5 0.464844 L 16 0.464844 L 16 11 L 5 11 Z M 5 0.464844 " clip-rule="nonzero"></path></clipPath></defs><g clip-path="url(#d2c498c124)"><path fill="transparent" d="M 0.488281 0 L 35.511719 0 L 35.511719 35.027344 L 0.488281 35.027344 Z M 0.488281 0 " fill-opacity="1" fill-rule="nonzero"></path><path fill="transparent" d="M 0.488281 0 L 35.511719 0 L 35.511719 35.027344 L 0.488281 35.027344 Z M 0.488281 0 " fill-opacity="1" fill-rule="nonzero"></path></g><g clip-path="url(#fe283b152f)"><path fill="#ffd333" d="M 31.082031 22.140625 L 27.335938 24.949219 L 26.4375 25.621094 L 21.226562 29.53125 C 20.980469 29.71875 20.628906 29.667969 20.441406 29.417969 L 10.34375 15.949219 C 10.316406 15.925781 10.296875 15.894531 10.277344 15.863281 C 10.144531 15.683594 10.132812 15.449219 10.234375 15.257812 L 11.402344 6.824219 C 11.441406 6.515625 11.722656 6.300781 12.03125 6.34375 L 12.691406 6.441406 C 13.03125 6.796875 13.269531 7.222656 13.433594 7.6875 L 12.433594 7.539062 L 11.347656 15.421875 L 21.003906 28.300781 L 25.765625 24.726562 L 26.664062 24.054688 L 29.964844 21.578125 L 20.308594 8.703125 L 15.488281 7.992188 C 15.410156 7.578125 15.300781 7.179688 15.152344 6.804688 C 16.925781 7.0625 18.691406 7.324219 20.464844 7.589844 C 20.671875 7.542969 20.898438 7.617188 21.03125 7.804688 C 21.058594 7.828125 21.078125 7.855469 21.097656 7.886719 L 31.195312 21.355469 C 31.382812 21.605469 31.332031 21.953125 31.082031 22.140625 Z M 31.082031 22.140625 " fill-opacity="1" fill-rule="nonzero"></path></g><g clip-path="url(#52b6e0301b)"><path fill="#ffd333" d="M 28.15625 26.976562 L 18.296875 34.367188 C 18.050781 34.554688 17.699219 34.507812 17.515625 34.257812 L 7.414062 20.785156 C 7.386719 20.761719 7.367188 20.730469 7.351562 20.703125 C 7.210938 20.519531 7.203125 20.285156 7.304688 20.097656 L 8.46875 11.660156 C 8.515625 11.351562 8.796875 11.136719 9.101562 11.179688 L 11.210938 11.449219 C 11.546875 11.804688 10.984375 12.132812 11.148438 12.597656 L 9.503906 12.375 L 8.417969 20.257812 L 18.074219 33.136719 L 27.03125 26.414062 L 26.4375 25.621094 L 27.335938 24.949219 L 28.265625 26.195312 C 28.457031 26.441406 28.402344 26.789062 28.15625 26.976562 Z M 28.15625 26.976562 " fill-opacity="1" fill-rule="nonzero"></path></g><path fill="#ffd333" d="M 14.585938 12.574219 C 14.484375 12.574219 14.382812 12.566406 14.277344 12.554688 C 13.710938 12.472656 13.210938 12.175781 12.867188 11.71875 C 12.160156 10.773438 12.351562 9.425781 13.296875 8.714844 C 13.753906 8.375 14.316406 8.230469 14.886719 8.308594 C 15.453125 8.390625 15.953125 8.6875 16.296875 9.144531 C 16.640625 9.605469 16.785156 10.167969 16.703125 10.734375 C 16.621094 11.300781 16.324219 11.804688 15.867188 12.144531 C 15.492188 12.425781 15.046875 12.574219 14.585938 12.574219 Z M 13.769531 11.042969 C 13.929688 11.257812 14.167969 11.398438 14.4375 11.4375 C 14.707031 11.476562 14.976562 11.410156 15.191406 11.246094 C 15.410156 11.082031 15.550781 10.84375 15.589844 10.574219 C 15.628906 10.304688 15.558594 10.039062 15.394531 9.820312 C 15.234375 9.605469 14.996094 9.464844 14.726562 9.425781 C 14.457031 9.386719 14.1875 9.453125 13.972656 9.617188 C 13.523438 9.953125 13.433594 10.59375 13.769531 11.042969 Z M 13.769531 11.042969 " fill-opacity="1" fill-rule="nonzero"></path><g clip-path="url(#9b78bf31e9)"><path fill="#ffd333" d="M 15.136719 10.527344 C 15.082031 10.835938 14.792969 11.039062 14.484375 10.984375 C 14.179688 10.933594 13.972656 10.640625 14.027344 10.335938 C 14.03125 10.324219 14.640625 6.980469 12.214844 5.554688 C 11.765625 5.289062 10.820312 5.273438 9.824219 5.253906 C 8.816406 5.238281 7.757812 5.21875 6.894531 4.941406 C 5.453125 4.472656 4.609375 3.417969 5.417969 0.921875 C 5.511719 0.625 5.828125 0.464844 6.125 0.558594 C 6.417969 0.652344 6.582031 0.96875 6.488281 1.265625 C 5.945312 2.929688 6.410156 3.605469 7.238281 3.871094 C 7.945312 4.101562 8.917969 4.117188 9.839844 4.132812 C 10.992188 4.152344 12.078125 4.171875 12.785156 4.585938 C 15.886719 6.414062 15.140625 10.515625 15.136719 10.527344 Z M 15.136719 10.527344 " fill-opacity="1" fill-rule="nonzero"></path></g><path fill="#ffd333" d="M 21.789062 13.878906 C 22.363281 14.644531 22.324219 15.570312 21.429688 16.242188 C 20.53125 16.914062 19.632812 16.691406 19.058594 15.921875 C 18.484375 15.15625 18.515625 14.222656 19.414062 13.550781 C 20.308594 12.878906 21.214844 13.109375 21.789062 13.878906 Z M 20.125 14.503906 C 19.746094 14.789062 19.6875 15.0625 19.867188 15.304688 C 20.050781 15.546875 20.335938 15.574219 20.714844 15.289062 C 21.101562 14.996094 21.15625 14.71875 20.976562 14.472656 C 20.792969 14.230469 20.515625 14.214844 20.125 14.503906 Z M 24.0625 17.09375 C 24.394531 17.539062 24.128906 18.175781 23.582031 18.253906 L 17.210938 19.171875 C 16.945312 19.207031 16.683594 19.101562 16.523438 18.886719 C 16.1875 18.441406 16.453125 17.804688 17.003906 17.722656 L 23.371094 16.808594 C 23.636719 16.769531 23.902344 16.878906 24.0625 17.09375 Z M 21.53125 20.0625 C 22.105469 20.832031 22.074219 21.75 21.171875 22.429688 C 20.273438 23.101562 19.375 22.878906 18.800781 22.109375 C 18.226562 21.34375 18.265625 20.417969 19.160156 19.746094 C 20.066406 19.066406 20.957031 19.296875 21.53125 20.0625 Z M 19.871094 20.691406 C 19.488281 20.976562 19.429688 21.25 19.609375 21.492188 C 19.792969 21.734375 20.078125 21.757812 20.457031 21.476562 C 20.835938 21.191406 20.898438 20.902344 20.71875 20.660156 C 20.535156 20.417969 20.25 20.40625 19.871094 20.691406 Z M 19.871094 20.691406 " fill-opacity="1" fill-rule="nonzero"></path></svg>