<?xml version="1.0" encoding="UTF-8" standalone="no"?><!DOCTYPE svg PUBLIC "-//W3C//DTD SVG 1.1//EN" "http://www.w3.org/Graphics/SVG/1.1/DTD/svg11.dtd"><svg width="100%" height="100%" viewBox="0 0 123 123" version="1.1" xmlns="http://www.w3.org/2000/svg" xmlns:xlink="http://www.w3.org/1999/xlink" xml:space="preserve" xmlns:serif="http://www.serif.com/" style="fill-rule:evenodd;clip-rule:evenodd;stroke-linecap:round;stroke-linejoin:round;stroke-miterlimit:1.5;"><rect id="Mesa-de-trabajo1" serif:id="Mesa de trabajo1" x="0" y="0" width="122.88" height="122.88" style="fill:none;"/><clipPath id="_clip1"><rect id="Mesa-de-trabajo11" serif:id="Mesa de trabajo1" x="0" y="0" width="122.88" height="122.88"/></clipPath><g clip-path="url(#_clip1)"><g><path d="M43.781,14.778l11.635,0" style="fill:none;stroke:#000;stroke-width:3.52px;"/><path d="M76.469,15.304l11.141,0c2.633,0 5.158,1.046 7.02,2.908c1.862,1.862 2.907,4.387 2.907,7.019l0,11.85" style="fill:none;stroke:#000;stroke-width:3.52px;"/><path d="M97.537,93.058l0,16.349c0,5.719 -4.632,10.358 -10.351,10.366c-18.365,0.027 -56.453,0.081 -74.966,0.108c-2.796,0.004 -5.477,-1.107 -7.451,-3.086c-1.975,-1.979 -3.078,-4.664 -3.067,-7.459c0.081,-20.143 0.256,-63.817 0.336,-83.745c0.023,-5.688 4.64,-10.287 10.328,-10.287l10.334,0" style="fill:none;stroke:#000;stroke-width:3.52px;"/><path d="M64.61,8.656c1.276,-0 2.499,0.507 3.401,1.409c0.902,0.902 1.409,2.126 1.409,3.401l0,5.75c0,2.847 -2.307,5.154 -5.154,5.154l-29.048,0c-2.931,0 -5.306,-2.375 -5.306,-5.306l-0,-5.374c-0,-2.78 2.254,-5.034 5.034,-5.034l3.539,-0c0,-0 0.007,-1.387 0.014,-2.754c0.007,-1.461 1.191,-2.644 2.652,-2.65c4.336,-0.018 12.917,-0.054 17.257,-0.072c1.465,-0.006 2.66,1.171 2.675,2.636c0.015,1.403 0.03,2.84 0.03,2.84l3.497,-0Z" style="fill:none;stroke:#000;stroke-width:3.52px;"/><path d="M9.096,37.171l-0,-11.781c-0,-1.548 1.254,-2.802 2.802,-2.802l11.346,-0" style="fill:none;stroke:#000;stroke-width:3.52px;"/><path d="M76.209,22.588l11.109,-0c0.766,-0 1.501,0.304 2.043,0.846c0.542,0.542 0.846,1.277 0.846,2.043c0,4.327 0,11.988 0,11.988" style="fill:none;stroke:#000;stroke-width:3.52px;"/><path d="M30.486,36.188c1.068,-0 1.934,0.866 1.934,1.934c0,2.379 0,6.418 0,9.001c0,0.643 -0.255,1.259 -0.71,1.714c-0.454,0.454 -1.07,0.709 -1.713,0.709c-2.394,0 -6.007,0 -8.199,0c-1.047,0 -1.895,-0.848 -1.895,-1.895c-0,-2.738 -0,-7.73 -0,-10.119c-0,-0.357 0.141,-0.699 0.393,-0.951c0.252,-0.252 0.594,-0.393 0.95,-0.393c2.224,-0 6.678,-0 9.24,-0Z" style="fill:none;stroke:#000;stroke-width:3.52px;"/><path d="M30.486,59.769c1.068,-0 1.934,0.866 1.934,1.934c0,2.379 0,6.418 0,9.001c0,0.643 -0.255,1.259 -0.71,1.713c-0.454,0.455 -1.07,0.71 -1.713,0.71c-2.394,0 -6.007,0 -8.199,0c-1.047,0 -1.895,-0.849 -1.895,-1.895c-0,-2.738 -0,-7.73 -0,-10.119c-0,-0.357 0.141,-0.699 0.393,-0.951c0.252,-0.252 0.594,-0.393 0.95,-0.393c2.224,-0 6.678,-0 9.24,-0Z" style="fill:none;stroke:#000;stroke-width:3.52px;"/><path d="M30.486,83.676c1.068,-0 1.934,0.866 1.934,1.934c0,2.379 0,6.418 0,9.001c0,0.643 -0.255,1.259 -0.71,1.713c-0.454,0.455 -1.07,0.71 -1.713,0.71c-2.394,0 -6.007,0 -8.199,0c-1.047,0 -1.895,-0.849 -1.895,-1.895c-0,-2.738 -0,-7.73 -0,-10.12c-0,-0.356 0.141,-0.698 0.393,-0.95c0.252,-0.252 0.594,-0.393 0.95,-0.393c2.224,-0 6.678,-0 9.24,-0Z" style="fill:none;stroke:#000;stroke-width:3.52px;"/><path d="M39.394,36.92l21.165,-0" style="fill:none;stroke:#000;stroke-width:3.52px;"/><path d="M39.394,48.556l21.165,0" style="fill:none;stroke:#000;stroke-width:3.52px;"/><path d="M39.394,60.752l21.165,-0" style="fill:none;stroke:#000;stroke-width:3.52px;"/><path d="M39.394,72.309l24.068,-0" style="fill:none;stroke:#000;stroke-width:3.52px;"/><path d="M93.7,50.145c5.768,-9.231 17.305,-9.231 23.074,-4.616c5.769,4.616 5.769,13.847 0,23.077c-4.038,6.923 -14.421,13.846 -23.074,18.462c-8.653,-4.616 -19.036,-11.539 -23.074,-18.462c-5.769,-9.23 -5.769,-18.461 -0,-23.077c5.768,-4.615 17.305,-4.615 23.074,4.616Z" style="fill:none;stroke:#000;stroke-width:3.52px;"/><path d="M68.926,65.555l10.09,0l3.842,-12.788l7.327,21.113l7.595,-19.785l3.215,10.739l18.018,-0.08" style="fill:none;stroke:#000;stroke-width:3.52px;"/><path d="M39.394,84.498l33.239,0" style="fill:none;stroke:#000;stroke-width:3.52px;"/><path d="M39.394,96.039l40.788,0" style="fill:none;stroke:#000;stroke-width:3.52px;"/><path d="M90.207,93.108l0,16.598c0,0.799 -0.317,1.564 -0.881,2.129c-0.565,0.564 -1.33,0.881 -2.129,0.881l-75.127,0c-1.643,0 -2.974,-1.331 -2.974,-2.974c-0,-13.141 -0,-65.349 -0,-65.349" style="fill:none;stroke:#000;stroke-width:3.52px;"/></g></g></svg>