<svg xmlns="http://www.w3.org/2000/svg" xmlns:xlink="http://www.w3.org/1999/xlink" width="48" zoomAndPan="magnify" viewBox="0 0 36 36.000001" height="48" preserveAspectRatio="xMidYMid meet" version="1.0"><defs><clipPath id="8540154095"><path d="M 0.488281 0 L 35.511719 0 L 35.511719 35.027344 L 0.488281 35.027344 Z M 0.488281 0 " clip-rule="nonzero"></path></clipPath><clipPath id="e8d69a6873"><path d="M 0.933594 4.308594 L 35 4.308594 L 35 30.578125 L 0.933594 30.578125 Z M 0.933594 4.308594 " clip-rule="nonzero"></path></clipPath></defs><g clip-path="url(#8540154095)"><path fill="transparent" d="M 0.488281 0 L 35.511719 0 L 35.511719 35.027344 L 0.488281 35.027344 Z M 0.488281 0 " fill-opacity="1" fill-rule="nonzero"></path><path fill="transparent" d="M 0.488281 0 L 35.511719 0 L 35.511719 35.027344 L 0.488281 35.027344 Z M 0.488281 0 " fill-opacity="1" fill-rule="nonzero"></path></g><g clip-path="url(#e8d69a6873)"><path fill="#ffd333" d="M 3 30.679688 L 27.242188 30.679688 C 27.519531 30.679688 27.78125 30.625 28.035156 30.519531 C 28.289062 30.414062 28.511719 30.265625 28.707031 30.070312 C 28.902344 29.878906 29.050781 29.652344 29.15625 29.402344 C 29.261719 29.148438 29.3125 28.882812 29.3125 28.609375 L 29.3125 24.308594 L 33.453125 22.703125 C 33.710938 22.601562 33.9375 22.457031 34.136719 22.265625 C 34.335938 22.078125 34.488281 21.855469 34.601562 21.605469 C 34.710938 21.351562 34.769531 21.089844 34.777344 20.816406 C 34.78125 20.539062 34.738281 20.273438 34.636719 20.019531 L 29.078125 5.667969 C 28.980469 5.410156 28.835938 5.183594 28.644531 4.984375 C 28.457031 4.785156 28.238281 4.632812 27.984375 4.523438 C 27.734375 4.410156 27.472656 4.351562 27.199219 4.347656 C 26.921875 4.339844 26.660156 4.390625 26.402344 4.488281 L 16.417969 8.351562 L 16.417969 7.574219 C 16.417969 7.304688 16.289062 7.128906 16.035156 7.039062 L 11.425781 5.527344 L 11.34375 5.503906 C 11.234375 5.472656 11.128906 5.476562 11.019531 5.511719 L 6.355469 7.039062 C 6.097656 7.125 5.96875 7.304688 5.96875 7.574219 L 5.96875 10.886719 C 5.96875 10.976562 5.976562 11.058594 5.984375 11.144531 L 3 11.144531 C 2.726562 11.144531 2.460938 11.199219 2.210938 11.304688 C 1.957031 11.410156 1.734375 11.558594 1.539062 11.753906 C 1.347656 11.949219 1.195312 12.171875 1.09375 12.425781 C 0.988281 12.675781 0.933594 12.941406 0.933594 13.214844 L 0.933594 28.609375 C 0.933594 28.882812 0.988281 29.148438 1.089844 29.398438 C 1.195312 29.652344 1.34375 29.878906 1.539062 30.070312 C 1.730469 30.265625 1.957031 30.414062 2.207031 30.519531 C 2.460938 30.625 2.726562 30.679688 3 30.679688 Z M 15.492188 14.519531 C 15.542969 14.417969 15.601562 14.320312 15.644531 14.21875 C 15.6875 14.144531 15.71875 14.066406 15.753906 13.992188 C 15.796875 13.890625 15.839844 13.789062 15.878906 13.6875 C 15.910156 13.609375 15.941406 13.53125 15.96875 13.453125 C 16.007812 13.351562 16.042969 13.242188 16.074219 13.140625 C 16.097656 13.0625 16.125 12.976562 16.144531 12.898438 C 16.175781 12.785156 16.199219 12.679688 16.226562 12.566406 L 16.277344 12.328125 C 16.285156 12.3125 16.285156 12.296875 16.289062 12.273438 L 27.242188 12.273438 C 27.503906 12.273438 27.726562 12.367188 27.910156 12.550781 C 28.09375 12.734375 28.183594 12.957031 28.1875 13.214844 L 28.1875 15.132812 L 15.121094 15.132812 C 15.144531 15.097656 15.167969 15.058594 15.1875 15.027344 C 15.25 14.925781 15.320312 14.828125 15.375 14.726562 C 15.414062 14.660156 15.453125 14.585938 15.492188 14.519531 Z M 7.09375 7.984375 L 11.203125 6.636719 L 15.289062 7.984375 L 15.289062 10.886719 C 15.289062 11.140625 15.273438 11.394531 15.246094 11.648438 C 15.085938 13.058594 14.511719 14.28125 13.53125 15.308594 C 13.140625 15.710938 12.699219 16.054688 12.210938 16.335938 C 11.96875 16.46875 11.71875 16.585938 11.460938 16.691406 C 11.371094 16.71875 11.285156 16.75 11.195312 16.785156 C 11.101562 16.75 11.015625 16.722656 10.929688 16.691406 C 10.296875 16.445312 9.722656 16.097656 9.210938 15.644531 C 9.085938 15.539062 8.96875 15.425781 8.855469 15.308594 C 8.003906 14.417969 7.460938 13.367188 7.226562 12.160156 C 7.191406 11.992188 7.164062 11.816406 7.140625 11.648438 L 7.140625 11.640625 C 7.109375 11.390625 7.097656 11.136719 7.09375 10.886719 Z M 2.0625 13.214844 C 2.0625 12.957031 2.152344 12.734375 2.335938 12.550781 C 2.519531 12.367188 2.742188 12.273438 3 12.273438 L 6.097656 12.273438 C 6.097656 12.292969 6.101562 12.316406 6.109375 12.335938 C 6.125 12.402344 6.140625 12.476562 6.152344 12.542969 C 6.179688 12.664062 6.210938 12.78125 6.242188 12.898438 C 6.261719 12.976562 6.285156 13.050781 6.3125 13.125 C 6.34375 13.230469 6.378906 13.34375 6.417969 13.453125 C 6.445312 13.53125 6.472656 13.605469 6.503906 13.675781 C 6.542969 13.785156 6.585938 13.886719 6.632812 13.992188 C 6.667969 14.066406 6.699219 14.140625 6.734375 14.207031 C 6.785156 14.316406 6.835938 14.410156 6.890625 14.511719 C 6.929688 14.582031 6.964844 14.652344 7.003906 14.722656 C 7.066406 14.824219 7.128906 14.917969 7.195312 15.019531 C 7.21875 15.058594 7.242188 15.097656 7.269531 15.132812 L 2.0625 15.132812 Z M 2.0625 16.261719 L 8.210938 16.261719 C 8.296875 16.339844 8.382812 16.417969 8.464844 16.492188 C 9.078125 17.03125 9.765625 17.449219 10.53125 17.746094 C 10.695312 17.804688 10.855469 17.863281 11.027344 17.917969 C 11.082031 17.933594 11.136719 17.941406 11.195312 17.941406 C 11.257812 17.945312 11.3125 17.933594 11.371094 17.914062 C 11.535156 17.863281 11.691406 17.804688 11.867188 17.738281 C 12.179688 17.621094 12.480469 17.476562 12.769531 17.308594 C 13.042969 17.15625 13.304688 16.984375 13.554688 16.792969 C 13.636719 16.722656 13.710938 16.65625 13.789062 16.589844 C 13.921875 16.480469 14.050781 16.378906 14.167969 16.261719 L 28.1875 16.261719 L 28.1875 18.578125 L 2.0625 18.578125 Z M 2.0625 19.707031 L 28.1875 19.707031 L 28.1875 28.609375 C 28.183594 28.867188 28.09375 29.089844 27.910156 29.273438 C 27.726562 29.457031 27.503906 29.550781 27.242188 29.550781 L 3 29.550781 C 2.742188 29.550781 2.519531 29.457031 2.335938 29.273438 C 2.152344 29.089844 2.0625 28.867188 2.0625 28.609375 Z M 2.0625 19.707031 " fill-opacity="1" fill-rule="nonzero"></path></g><path fill="#ffd333" d="M 19.71875 28.421875 L 25.589844 28.421875 C 25.753906 28.421875 25.914062 28.390625 26.066406 28.328125 C 26.21875 28.265625 26.355469 28.175781 26.46875 28.058594 C 26.585938 27.941406 26.675781 27.808594 26.742188 27.65625 C 26.804688 27.503906 26.835938 27.347656 26.835938 27.179688 L 26.835938 24.328125 C 26.835938 24.160156 26.804688 24.003906 26.742188 23.851562 C 26.679688 23.699219 26.589844 23.5625 26.472656 23.445312 C 26.355469 23.328125 26.21875 23.238281 26.066406 23.175781 C 25.914062 23.113281 25.757812 23.082031 25.589844 23.082031 L 19.71875 23.082031 C 19.554688 23.082031 19.394531 23.113281 19.242188 23.175781 C 19.089844 23.238281 18.953125 23.328125 18.835938 23.445312 C 18.722656 23.5625 18.628906 23.699219 18.566406 23.851562 C 18.503906 24.003906 18.472656 24.160156 18.472656 24.328125 L 18.472656 27.179688 C 18.472656 27.347656 18.503906 27.503906 18.570312 27.65625 C 18.632812 27.808594 18.722656 27.941406 18.839844 28.058594 C 18.957031 28.175781 19.089844 28.265625 19.242188 28.328125 C 19.394531 28.390625 19.554688 28.421875 19.71875 28.421875 Z M 19.601562 24.328125 C 19.601562 24.25 19.644531 24.210938 19.71875 24.207031 L 25.589844 24.207031 C 25.667969 24.210938 25.707031 24.25 25.710938 24.328125 L 25.710938 27.179688 C 25.710938 27.261719 25.671875 27.296875 25.589844 27.292969 L 19.71875 27.292969 C 19.644531 27.292969 19.605469 27.257812 19.601562 27.179688 Z M 19.601562 24.328125 " fill-opacity="1" fill-rule="nonzero"></path><path fill="#ffd333" d="M 4.410156 25.527344 L 7.230469 25.527344 C 7.386719 25.527344 7.519531 25.472656 7.628906 25.363281 C 7.738281 25.25 7.792969 25.117188 7.792969 24.964844 C 7.792969 24.808594 7.738281 24.675781 7.628906 24.5625 C 7.519531 24.453125 7.386719 24.398438 7.230469 24.398438 L 4.410156 24.398438 C 4.253906 24.398438 4.121094 24.453125 4.011719 24.5625 C 3.902344 24.675781 3.84375 24.808594 3.84375 24.964844 C 3.84375 25.117188 3.902344 25.25 4.011719 25.363281 C 4.121094 25.472656 4.253906 25.527344 4.410156 25.527344 Z M 4.410156 25.527344 " fill-opacity="1" fill-rule="nonzero"></path><path fill="#ffd333" d="M 4.410156 27.738281 L 12.046875 27.738281 C 12.203125 27.738281 12.335938 27.683594 12.445312 27.574219 C 12.554688 27.464844 12.613281 27.332031 12.613281 27.175781 C 12.613281 27.019531 12.554688 26.886719 12.445312 26.777344 C 12.335938 26.667969 12.203125 26.613281 12.046875 26.613281 L 4.410156 26.613281 C 4.253906 26.613281 4.121094 26.667969 4.011719 26.777344 C 3.902344 26.886719 3.84375 27.019531 3.84375 27.175781 C 3.84375 27.332031 3.902344 27.464844 4.011719 27.574219 C 4.121094 27.683594 4.253906 27.738281 4.410156 27.738281 Z M 4.410156 27.738281 " fill-opacity="1" fill-rule="nonzero"></path><path fill="#ffd333" d="M 10.234375 13.339844 C 10.34375 13.449219 10.476562 13.503906 10.632812 13.503906 C 10.789062 13.503906 10.921875 13.449219 11.03125 13.339844 L 14.003906 10.367188 C 14.113281 10.257812 14.167969 10.125 14.167969 9.96875 C 14.167969 9.8125 14.113281 9.679688 14 9.570312 C 13.890625 9.460938 13.757812 9.40625 13.601562 9.40625 C 13.445312 9.40625 13.3125 9.460938 13.203125 9.570312 L 10.632812 12.144531 L 9.546875 11.054688 C 9.4375 10.941406 9.304688 10.882812 9.144531 10.882812 C 8.988281 10.882812 8.855469 10.9375 8.742188 11.046875 C 8.632812 11.160156 8.574219 11.292969 8.578125 11.453125 C 8.578125 11.609375 8.636719 11.742188 8.75 11.851562 Z M 10.234375 13.339844 " fill-opacity="1" fill-rule="nonzero"></path></svg>