<svg xmlns="http://www.w3.org/2000/svg" xmlns:xlink="http://www.w3.org/1999/xlink" width="48" zoomAndPan="magnify" viewBox="0 0 36 36.000001" height="48" preserveAspectRatio="xMidYMid meet" version="1.0"><defs><clipPath id="b001cd6e5a"><path d="M 0.488281 0 L 35.511719 0 L 35.511719 35.027344 L 0.488281 35.027344 Z M 0.488281 0 " clip-rule="nonzero"></path></clipPath><clipPath id="69a6b0c218"><path d="M 1 10 L 25 10 L 25 34.734375 L 1 34.734375 Z M 1 10 " clip-rule="nonzero"></path></clipPath><clipPath id="ad18978780"><path d="M 13 0.4375 L 35.285156 0.4375 L 35.285156 30 L 13 30 Z M 13 0.4375 " clip-rule="nonzero"></path></clipPath></defs><g clip-path="url(#b001cd6e5a)"><path fill="transparent" d="M 0.488281 0 L 35.511719 0 L 35.511719 35.027344 L 0.488281 35.027344 Z M 0.488281 0 " fill-opacity="1" fill-rule="nonzero"></path><path fill="transparent" d="M 0.488281 0 L 35.511719 0 L 35.511719 35.027344 L 0.488281 35.027344 Z M 0.488281 0 " fill-opacity="1" fill-rule="nonzero"></path></g><g clip-path="url(#69a6b0c218)"><path fill="#ffd333" d="M 22.972656 31.917969 L 22.980469 31.917969 Z M 5.136719 12.179688 C 4.921875 12.179688 4.722656 12.273438 4.503906 12.464844 C 4.480469 12.488281 4.195312 12.757812 3.984375 12.960938 L 3.742188 13.1875 C 2.660156 14.199219 2.167969 16.03125 2.492188 17.851562 C 2.597656 18.441406 2.765625 19.054688 2.996094 19.667969 C 4.15625 22.78125 6.359375 25.492188 8 27.214844 C 9.636719 28.949219 12.226562 31.296875 15.273438 32.621094 C 15.875 32.882812 16.476562 33.085938 17.058594 33.222656 C 18.859375 33.644531 20.714844 33.25 21.785156 32.21875 L 21.929688 32.082031 C 22.132812 31.890625 22.496094 31.546875 22.550781 31.496094 C 23.191406 30.835938 22.855469 30.273438 21.53125 28.925781 L 21.191406 28.578125 C 20.34375 27.695312 18.917969 26.21875 17.726562 26.355469 C 17.410156 26.394531 17.070312 26.628906 16.707031 26.882812 C 16.34375 27.136719 15.964844 27.402344 15.503906 27.546875 C 14.273438 27.9375 13.027344 27.683594 11.996094 26.828125 C 11.386719 26.328125 10.765625 25.738281 10.199219 25.125 C 9.628906 24.539062 9.074219 23.886719 8.601562 23.25 C 7.808594 22.171875 7.617188 20.914062 8.074219 19.710938 C 8.242188 19.257812 8.527344 18.894531 8.804688 18.542969 C 9.074219 18.195312 9.328125 17.867188 9.382812 17.554688 C 9.585938 16.371094 8.1875 14.867188 7.347656 13.96875 L 7.019531 13.613281 C 6.140625 12.652344 5.609375 12.179688 5.136719 12.179688 Z M 18.511719 34.582031 C 17.902344 34.582031 17.3125 34.507812 16.789062 34.386719 C 16.136719 34.234375 15.464844 34.007812 14.796875 33.714844 C 11.5625 32.3125 8.84375 29.851562 7.132812 28.039062 C 5.414062 26.234375 3.105469 23.390625 1.875 20.085938 C 1.621094 19.402344 1.433594 18.722656 1.316406 18.0625 C 1 16.304688 1.261719 13.871094 2.929688 12.3125 L 3.160156 12.09375 C 3.390625 11.875 3.699219 11.582031 3.714844 11.570312 C 5.410156 10.078125 6.910156 11.722656 7.902344 12.808594 L 8.222656 13.15625 C 9.210938 14.214844 10.867188 15.988281 10.558594 17.757812 C 10.453125 18.367188 10.078125 18.851562 9.746094 19.277344 C 9.515625 19.570312 9.296875 19.851562 9.191406 20.128906 C 8.882812 20.957031 9.011719 21.789062 9.566406 22.539062 C 10.003906 23.136719 10.523438 23.746094 11.066406 24.304688 C 11.605469 24.886719 12.1875 25.4375 12.753906 25.90625 C 13.476562 26.5 14.300781 26.675781 15.140625 26.40625 C 15.429688 26.316406 15.71875 26.117188 16.023438 25.902344 C 16.46875 25.59375 16.96875 25.242188 17.585938 25.167969 C 19.367188 24.960938 21.046875 26.703125 22.054688 27.746094 L 22.386719 28.085938 C 23.417969 29.136719 24.976562 30.722656 23.402344 32.332031 C 23.402344 32.332031 23.402344 32.335938 23.402344 32.335938 C 23.371094 32.363281 22.972656 32.742188 22.75 32.953125 L 22.613281 33.082031 C 21.464844 34.1875 19.925781 34.582031 18.511719 34.582031 " fill-opacity="1" fill-rule="nonzero"></path></g><path fill="#ffd333" d="M 13.082031 18.0625 C 13.078125 17.878906 13.074219 17.726562 13.070312 17.601562 C 13.070312 17.476562 13.066406 17.34375 13.066406 17.207031 C 13.066406 17.066406 13.070312 16.878906 13.070312 16.644531 C 13.085938 16.160156 13.203125 15.753906 13.421875 15.421875 C 13.640625 15.085938 13.964844 14.804688 14.390625 14.574219 L 14.976562 14.257812 C 15.179688 14.144531 15.3125 14.011719 15.367188 13.855469 C 15.425781 13.699219 15.457031 13.550781 15.46875 13.414062 C 15.480469 13.257812 15.484375 13.085938 15.488281 12.902344 C 15.488281 12.71875 15.484375 12.546875 15.476562 12.382812 C 15.457031 12.066406 15.242188 11.910156 14.839844 11.910156 C 14.636719 11.910156 14.488281 11.953125 14.398438 12.035156 C 14.304688 12.117188 14.257812 12.222656 14.253906 12.355469 C 14.246094 12.582031 14.242188 12.792969 14.238281 12.988281 C 14.234375 13.183594 14.242188 13.398438 14.257812 13.628906 L 13.089844 13.628906 C 13.082031 13.433594 13.074219 13.25 13.070312 13.074219 C 13.066406 12.902344 13.066406 12.738281 13.070312 12.585938 C 13.09375 12.003906 13.246094 11.585938 13.523438 11.335938 C 13.796875 11.085938 14.238281 10.960938 14.839844 10.960938 C 15.476562 10.960938 15.933594 11.085938 16.207031 11.335938 C 16.480469 11.585938 16.628906 12.003906 16.652344 12.585938 C 16.664062 12.878906 16.664062 13.15625 16.652344 13.414062 C 16.632812 13.882812 16.515625 14.261719 16.292969 14.542969 C 16.070312 14.828125 15.78125 15.070312 15.421875 15.265625 L 14.761719 15.625 C 14.574219 15.730469 14.445312 15.882812 14.371094 16.085938 C 14.300781 16.289062 14.265625 16.472656 14.265625 16.644531 L 14.265625 17.039062 L 16.566406 17.039062 L 16.566406 18.0625 L 13.082031 18.0625 " fill-opacity="1" fill-rule="nonzero"></path><path fill="#ffd333" d="M 18.113281 15.199219 L 19.105469 15.199219 L 19.257812 13.523438 L 19.394531 12.0625 L 19.148438 12.0625 L 18.691406 13.523438 Z M 19.105469 18.0625 L 19.105469 16.214844 L 16.980469 16.214844 L 16.980469 15.253906 L 18.640625 11.042969 L 20.210938 11.042969 L 20.210938 15.199219 L 20.980469 15.199219 L 20.980469 16.214844 L 20.210938 16.214844 L 20.210938 18.0625 L 19.105469 18.0625 " fill-opacity="1" fill-rule="nonzero"></path><path fill="#ffd333" d="M 25.609375 18.0625 L 27.621094 12.0625 L 25.113281 12.0625 L 25.113281 11.042969 L 28.796875 11.042969 L 28.796875 12.089844 L 26.832031 18.0625 L 25.609375 18.0625 " fill-opacity="1" fill-rule="nonzero"></path><path fill="#ffd333" d="M 22.542969 18.847656 L 24.667969 10.523438 L 23.527344 10.523438 L 21.402344 18.847656 L 22.542969 18.847656 " fill-opacity="1" fill-rule="nonzero"></path><path fill="#ffd333" d="M 7.214844 10.269531 C 7.136719 10.269531 7.058594 10.253906 6.980469 10.222656 C 6.675781 10.09375 6.535156 9.742188 6.664062 9.441406 C 6.796875 9.125 6.941406 8.8125 7.097656 8.507812 C 7.246094 8.214844 7.605469 8.09375 7.902344 8.246094 C 8.195312 8.394531 8.3125 8.753906 8.164062 9.050781 C 8.023438 9.328125 7.886719 9.613281 7.765625 9.90625 C 7.667969 10.132812 7.449219 10.269531 7.214844 10.269531 " fill-opacity="1" fill-rule="nonzero"></path><path fill="#ffd333" d="M 8.617188 7.722656 C 8.5 7.722656 8.382812 7.6875 8.277344 7.617188 C 8.003906 7.429688 7.9375 7.054688 8.128906 6.785156 C 8.34375 6.472656 8.578125 6.160156 8.820312 5.863281 C 9.03125 5.605469 9.40625 5.566406 9.664062 5.777344 C 9.917969 5.984375 9.957031 6.363281 9.75 6.617188 C 9.523438 6.890625 9.308594 7.179688 9.109375 7.464844 C 8.992188 7.632812 8.808594 7.722656 8.617188 7.722656 " fill-opacity="1" fill-rule="nonzero"></path><path fill="#ffd333" d="M 10.851562 5.207031 C 10.683594 5.207031 10.519531 5.136719 10.402344 5.003906 C 10.183594 4.757812 10.207031 4.378906 10.453125 4.160156 C 10.78125 3.867188 11.128906 3.585938 11.484375 3.320312 C 11.75 3.125 12.125 3.179688 12.320312 3.445312 C 12.515625 3.710938 12.460938 4.085938 12.195312 4.28125 C 11.871094 4.523438 11.550781 4.785156 11.246094 5.054688 C 11.132812 5.15625 10.992188 5.207031 10.851562 5.207031 " fill-opacity="1" fill-rule="nonzero"></path><g clip-path="url(#ad18978780)"><path fill="#ffd333" d="M 24.9375 29.136719 C 24.777344 29.136719 24.621094 29.074219 24.503906 28.953125 C 24.34375 28.785156 24.292969 28.535156 24.382812 28.320312 L 25.371094 25.839844 C 25.492188 25.535156 25.84375 25.386719 26.148438 25.507812 C 26.453125 25.628906 26.605469 25.976562 26.480469 26.285156 L 26.011719 27.457031 C 30.726562 25.242188 33.808594 20.472656 33.808594 15.183594 C 33.808594 7.710938 27.726562 1.628906 20.253906 1.628906 C 18.117188 1.628906 16.078125 2.109375 14.183594 3.0625 C 13.886719 3.210938 13.527344 3.089844 13.378906 2.796875 C 13.234375 2.5 13.351562 2.140625 13.648438 1.992188 C 15.707031 0.957031 17.929688 0.433594 20.253906 0.433594 C 28.386719 0.433594 35.003906 7.050781 35.003906 15.183594 C 35.003906 21.441406 31.035156 27.035156 25.132812 29.105469 C 25.070312 29.128906 25.003906 29.136719 24.9375 29.136719 " fill-opacity="1" fill-rule="nonzero"></path></g><path fill="#ffd333" d="M 27.441406 29.90625 C 27.382812 29.90625 27.324219 29.894531 27.265625 29.878906 L 24.761719 29.113281 C 24.445312 29.015625 24.269531 28.679688 24.367188 28.367188 C 24.460938 28.050781 24.796875 27.875 25.113281 27.96875 L 27.613281 28.734375 C 27.929688 28.832031 28.109375 29.167969 28.011719 29.480469 C 27.933594 29.738281 27.695312 29.90625 27.441406 29.90625 " fill-opacity="1" fill-rule="nonzero"></path></svg>